<svg version="1.1" id="Layer_1" xmlns="http://www.w3.org/2000/svg" xmlns:xlink="http://www.w3.org/1999/xlink" x="0px" y="0px"
	 width="100%" viewBox="0 0 500 500" enable-background="new 0 0 500 500" xml:space="preserve">

<path fill="#501615" opacity="1.000000" stroke="none" 
	d="
M178.826447,207.967407 
	C180.279480,203.358810 181.732529,198.750214 183.275787,193.855469 
	C176.210281,190.202087 169.802124,184.746826 166.402313,176.847275 
	C160.147354,162.313751 162.041534,143.350784 177.266495,132.379562 
	C183.502579,127.885803 190.184906,125.991043 198.003647,125.812485 
	C209.256943,125.555504 218.153900,129.800385 225.825897,137.314651 
	C227.955246,139.400208 229.684357,139.835419 232.333023,138.747360 
	C246.135941,133.077194 259.950958,134.634323 273.557251,139.355011 
	C275.960754,140.188904 276.739471,140.144760 278.289978,138.214432 
	C284.872589,130.019257 293.739105,126.661018 304.096558,125.892670 
	C314.282898,125.137032 322.800842,128.387711 330.810974,135.221466 
	C334.094727,139.823975 337.019897,143.917480 339.945068,148.010986 
	C344.579132,159.154449 343.544800,170.052658 336.914215,179.823288 
	C333.729767,184.515762 328.441772,187.752121 324.296082,191.840240 
	C323.214172,192.907135 322.842957,194.694748 321.736359,196.557800 
	C318.766632,196.686905 316.205902,196.409546 313.404724,195.941971 
	C312.638580,194.883881 312.112854,194.016022 311.976135,193.038193 
	C313.182037,190.413330 313.998962,187.898438 315.001099,185.124817 
	C318.678436,181.272705 321.963104,177.589111 320.777344,171.612488 
	C314.537384,157.478256 310.668610,156.420395 292.934784,163.861679 
	C285.729523,151.883743 274.065948,145.804825 261.110077,143.084198 
	C241.585114,138.984131 225.780975,147.038498 212.870682,161.316238 
	C210.859039,163.540939 209.099960,164.771881 206.823669,162.919678 
	C201.122253,158.280518 196.915100,157.789017 190.858078,161.657928 
	C185.444748,165.115738 183.198242,170.920883 184.912491,177.403549 
	C187.149490,182.936432 190.634415,186.879272 196.004700,189.367035 
	C195.250565,190.806366 194.449661,191.898499 193.306091,193.012756 
	C191.166534,194.586700 189.202759,195.985382 187.608612,197.723145 
	C184.569809,201.035690 181.741913,204.541718 178.826447,207.967407 
M288.224884,147.539352 
	C290.786499,149.864883 293.348114,152.190430 296.003540,154.601151 
	C314.209351,146.221527 330.882080,161.496719 327.308350,177.969177 
	C327.391205,178.242340 327.474091,178.515488 327.556976,178.788635 
	C327.732544,178.555939 327.908142,178.323227 328.741455,177.839737 
	C332.991913,171.849182 335.922577,165.578094 333.028351,157.198395 
	C332.460785,154.738846 332.035797,152.235809 331.301056,149.827271 
	C328.099213,139.331100 320.121277,134.546783 309.988647,133.289856 
	C299.492798,131.987869 290.526764,135.406982 283.285522,144.311462 
	C285.138947,145.362091 286.522522,146.146393 288.224884,147.539352 
M171.640289,158.026581 
	C169.257141,165.042740 172.123672,174.824081 177.539108,178.154846 
	C176.862152,157.187622 188.202667,148.711914 209.567871,154.082596 
	C212.296051,151.583847 214.966019,149.138412 218.280411,146.477631 
	C222.271500,144.682938 220.867569,142.562286 218.515945,140.613373 
	C208.088425,131.971466 189.913589,128.636215 178.281235,141.388702 
	C174.286621,145.767975 170.365189,150.499695 171.640289,158.026581 
z"/>
<path fill="#471110" opacity="1.000000" stroke="none" 
	d="
M166.765793,346.957520 
	C159.899399,340.262207 153.024399,333.575684 146.171814,326.866272 
	C144.089310,324.827301 142.136139,322.652832 140.006516,320.666077 
	C134.375381,315.412842 136.352966,303.043396 141.902893,298.219208 
	C146.233109,294.455231 151.897766,295.207825 157.707535,296.048584 
	C158.461884,296.613831 158.750824,296.793518 159.039764,296.973206 
	C159.039764,296.973206 158.999451,296.958679 159.052124,297.298157 
	C163.231491,301.648438 167.300339,305.721130 171.504135,309.649414 
	C174.582489,312.525970 177.838089,315.212860 181.071899,318.339691 
	C182.555084,323.195282 185.321854,325.690613 190.622620,324.976318 
	C198.984726,332.444000 207.061325,339.764709 215.089890,347.137726 
	C215.896637,347.878632 216.412415,348.936371 216.995880,350.217010 
	C216.281982,352.731232 215.635437,354.875549 214.692383,357.176239 
	C211.529465,360.249603 208.541534,363.059021 205.834381,366.116974 
	C203.590561,368.651581 203.501328,371.433624 205.989166,374.431732 
	C205.953476,375.673279 205.923447,376.500793 205.523438,377.321381 
	C202.048492,378.601410 199.668610,377.622803 197.214722,375.433044 
	C194.054825,372.613251 190.481766,370.256439 186.973145,367.394775 
	C182.940811,363.480743 179.021957,359.872162 175.038452,355.908325 
	C172.727173,353.364319 170.480545,351.175537 168.144608,348.626801 
	C167.625458,347.830383 167.195618,347.393951 166.765793,346.957520 
z"/>
<path fill="#4C1212" opacity="1.000000" stroke="none" 
	d="
M329.331604,243.897125 
	C331.839539,249.362320 334.347443,254.827515 336.516968,260.896423 
	C336.130707,300.647034 336.082794,339.793945 336.034912,378.940887 
	C336.239838,386.247803 332.702850,392.245026 328.199493,397.271729 
	C323.476868,402.543213 316.772430,405.177338 309.065796,406.936157 
	C271.137634,406.907990 234.061600,406.961029 196.985580,407.014099 
	C194.004791,406.245483 191.024017,405.476868 188.163513,404.191345 
	C189.200272,401.745758 190.116760,399.817139 191.430603,397.928467 
	C195.570892,398.586609 199.296371,399.561768 203.060516,399.745636 
	C210.028534,400.085999 217.019165,399.963409 224.061493,400.294312 
	C224.748306,400.380493 225.373978,400.205933 226.461273,399.943634 
	C252.237762,399.841858 277.552917,399.897186 302.867371,399.787506 
	C317.827057,399.722717 329.070892,389.119812 329.107971,374.864441 
	C329.205017,337.558350 329.130920,300.251770 329.069122,262.945465 
	C329.060883,257.981781 327.566803,253.517349 324.207001,250.447632 
	C320.303558,253.406570 316.649506,256.176453 312.934998,258.593414 
	C312.257538,256.189331 311.640533,254.138153 311.213165,251.812668 
	C313.685516,249.276550 315.968231,247.014755 318.538666,244.573563 
	C319.541443,243.260147 320.256439,242.126114 321.240601,240.824890 
	C319.007996,238.031219 316.506226,235.404724 314.027863,232.437408 
	C316.053711,230.477783 318.056183,228.858994 320.115051,226.820801 
	C320.516327,223.268600 320.861206,220.135803 321.602051,217.002655 
	C324.056122,217.324127 326.114166,217.645920 328.172241,217.967728 
	C328.434601,219.085342 328.696930,220.202957 328.759216,221.812592 
	C328.334869,222.514648 328.162292,222.760910 328.041382,223.043381 
	C328.041382,223.043381 328.024323,222.987946 327.797241,223.252441 
	C327.408295,224.415833 327.246429,225.314713 327.084534,226.213608 
	C327.084534,226.213608 327.051849,226.547318 327.047607,227.003403 
	C327.053131,227.651199 327.062897,227.842926 327.072662,228.034668 
	C327.072662,228.034668 327.047943,228.016373 326.827087,228.172455 
	C326.418762,228.614975 326.231262,228.901428 326.043762,229.187866 
	C326.861145,232.871933 327.678497,236.556015 328.119507,240.755402 
	C328.272644,242.146194 328.802124,243.021667 329.331604,243.897125 
z"/>
<path fill="#511615" opacity="1.000000" stroke="none" 
	d="
M311.023499,252.086990 
	C311.640533,254.138153 312.257538,256.189331 312.861206,258.766510 
	C312.847809,259.292542 312.817993,259.667572 312.454285,259.773743 
	C308.914642,260.817871 305.794525,262.222137 302.552765,262.610016 
	C290.918427,264.001923 275.871002,259.794586 273.342560,244.935471 
	C273.052765,243.232422 270.683960,241.240112 268.841461,240.549484 
	C257.530975,236.309845 246.067963,236.820099 234.786041,240.684036 
	C233.196991,241.228256 231.972061,243.471771 231.047684,245.182266 
	C229.351120,248.321671 228.626633,252.179214 226.396881,254.802322 
	C219.091537,263.396454 205.823120,265.308807 194.043579,259.714905 
	C195.074875,257.564301 196.045258,255.756470 197.403503,253.993195 
	C210.449493,258.812988 222.020813,253.624237 224.794861,241.571930 
	C225.153458,236.356201 222.696991,232.699234 218.916168,230.492447 
	C207.645477,223.913971 189.721069,228.722076 182.569702,241.027390 
	C179.465729,242.366989 176.724335,243.681488 173.982925,244.995972 
	C174.723404,243.392593 175.696533,241.852356 176.152557,240.171783 
	C176.933121,237.295105 177.778656,234.347519 177.906998,231.399673 
	C178.238617,223.782837 178.193604,216.149597 178.562714,208.245163 
	C181.741913,204.541718 184.569809,201.035690 187.608612,197.723145 
	C189.202759,195.985382 191.166534,194.586700 193.205338,193.322174 
	C188.440216,199.582565 185.338287,206.362106 184.489899,214.507019 
	C184.455078,218.947449 184.662476,223.078979 184.892456,227.660507 
	C207.982574,215.929642 218.332642,217.442490 231.301910,234.002502 
	C245.124420,229.207382 259.150818,229.031754 272.604309,234.124420 
	C274.721375,231.431854 276.208069,228.744339 278.400238,226.891357 
	C287.680756,219.046722 298.238312,218.343933 309.297241,222.300644 
	C312.999542,223.625259 316.477905,225.575760 320.058624,227.240189 
	C318.056183,228.858994 316.053711,230.477783 313.669312,232.521286 
	C306.922699,228.241699 299.962097,226.512787 292.013062,227.731781 
	C284.326721,228.910507 279.228088,235.014999 280.163391,243.304504 
	C281.782654,248.628967 284.859070,252.040421 289.827515,254.068344 
	C297.342682,257.135773 304.252533,255.879959 311.023499,252.086990 
z"/>
<path fill="#4C1514" opacity="1.000000" stroke="none" 
	d="
M197.015625,253.948639 
	C196.045258,255.756470 195.074875,257.564301 193.713562,259.698181 
	C192.892639,259.930084 192.462692,259.835938 191.831482,259.485046 
	C187.810684,256.089874 183.991104,252.951431 179.212646,249.025085 
	C177.849350,254.620697 175.590012,260.086426 175.346390,265.640564 
	C174.728104,279.735779 175.013153,293.870636 174.627686,307.838745 
	C170.146866,305.842010 168.835770,302.677582 168.924393,298.140900 
	C169.173203,285.404388 168.996063,272.659485 168.986938,259.917908 
	C168.094406,254.350983 171.493454,250.187317 173.822281,245.308563 
	C176.724335,243.681488 179.465729,242.366989 182.665894,241.348602 
	C184.097977,242.426270 185.071320,243.207840 186.129425,244.313721 
	C188.467117,247.119324 190.720062,249.600632 193.025696,252.336578 
	C193.705032,252.773605 194.331680,252.955994 195.251221,253.061676 
	C196.034607,253.306198 196.525116,253.627411 197.015625,253.948639 
z"/>
<path fill="#4B1312" opacity="1.000000" stroke="none" 
	d="
M191.033249,397.888489 
	C190.116760,399.817139 189.200272,401.745758 188.028015,403.938599 
	C181.691483,403.519958 178.064316,399.320343 174.841354,394.813080 
	C172.889282,392.083130 171.520462,388.936127 169.926315,385.258484 
	C169.653900,383.697723 169.344788,382.855042 169.035675,382.012329 
	C169.012817,381.615295 168.989960,381.218262 168.934204,380.193787 
	C168.580368,379.015869 168.259430,378.465363 167.938507,377.914886 
	C167.938492,377.914886 167.926575,377.494415 167.991425,376.816742 
	C168.108047,371.428894 168.159836,366.718719 168.590591,362.034241 
	C169.980240,363.747437 170.930527,365.475189 172.020401,367.109863 
	C172.923096,368.463806 173.990494,369.707947 175.073547,371.429932 
	C174.878998,383.933960 180.587814,392.355255 191.033249,397.888489 
z"/>
<path fill="#511615" opacity="1.000000" stroke="none" 
	d="
M328.144348,217.533813 
	C326.114166,217.645920 324.056122,217.324127 321.485138,216.673203 
	C320.674255,215.242477 320.376282,214.140854 320.112244,212.635803 
	C317.979156,206.865662 315.812164,201.498932 313.645142,196.132202 
	C316.205902,196.409546 318.766632,196.686905 321.765198,196.952606 
	C324.174133,203.660629 326.145294,210.380280 328.144348,217.533813 
z"/>
<path fill="#602623" opacity="1.000000" stroke="none" 
	d="
M168.673828,260.210999 
	C168.996063,272.659485 169.173203,285.404388 168.924393,298.140900 
	C168.835770,302.677582 170.146866,305.842010 174.703857,308.183838 
	C177.287170,311.545563 179.485504,314.411316 181.516556,317.453888 
	C181.349289,317.630707 181.014679,317.984283 181.014679,317.984283 
	C177.838089,315.212860 174.582489,312.525970 171.504135,309.649414 
	C167.300339,305.721130 163.231491,301.648438 159.072876,297.291199 
	C159.673996,297.068237 160.355820,297.081635 160.930618,297.336456 
	C162.472748,298.020081 163.969070,298.807068 165.483582,299.552979 
	C166.307465,297.662933 167.797241,295.789124 167.843658,293.880157 
	C168.086151,283.907227 167.949463,273.925323 167.982986,263.946655 
	C167.986832,262.798737 168.229019,261.651611 168.673828,260.210999 
z"/>
<path fill="#BF9E91" opacity="1.000000" stroke="none" 
	d="
M336.430939,378.762878 
	C336.082794,339.793945 336.130707,300.647034 336.548584,261.286255 
	C336.888062,300.243225 336.857544,339.414032 336.430939,378.762878 
z"/>
<path fill="#EAD3C0" opacity="1.000000" stroke="none" 
	d="
M197.177826,407.408447 
	C234.061600,406.961029 271.137634,406.907990 308.690552,406.909790 
	C308.524811,407.317444 307.881927,407.979248 307.239502,407.978851 
	C270.616333,407.955078 233.993210,407.876251 197.177826,407.408447 
z"/>
<path fill="#EAD3C0" opacity="1.000000" stroke="none" 
	d="
M339.963501,147.576233 
	C337.019897,143.917480 334.094727,139.823975 331.106262,135.402283 
	C337.730103,135.772110 340.138977,139.024002 339.963501,147.576233 
z"/>
<path fill="#EAD3C0" opacity="1.000000" stroke="none" 
	d="
M168.211639,362.008545 
	C168.159836,366.718719 168.108047,371.428894 168.030060,376.609985 
	C167.670776,375.602051 167.066956,374.126373 167.049484,372.643768 
	C166.952164,364.388916 166.996979,356.132416 166.879486,347.416992 
	C167.195618,347.393951 167.625458,347.830383 168.061340,349.084534 
	C168.115479,353.937683 168.163544,357.973114 168.211639,362.008545 
z"/>
<path fill="#511615" opacity="1.000000" stroke="none" 
	d="
M329.245178,243.573853 
	C328.802124,243.021667 328.272644,242.146194 327.966522,241.060776 
	C328.512848,241.650757 328.835785,242.450668 329.245178,243.573853 
z"/>
<path fill="#511615" opacity="1.000000" stroke="none" 
	d="
M327.363770,225.995941 
	C327.246429,225.314713 327.408295,224.415833 327.817688,223.273407 
	C327.924500,223.946014 327.783783,224.862152 327.363770,225.995941 
z"/>
<path fill="#511818" opacity="1.000000" stroke="none" 
	d="
M168.984543,382.368408 
	C169.344788,382.855042 169.653900,383.697723 169.934143,384.895325 
	C169.581329,384.408295 169.257370,383.566376 168.984543,382.368408 
z"/>
<path fill="#511818" opacity="1.000000" stroke="none" 
	d="
M167.931534,378.251221 
	C168.259430,378.465363 168.580368,379.015869 168.910843,379.896454 
	C168.588440,379.680206 168.256500,379.133911 167.931534,378.251221 
z"/>
<path fill="#511615" opacity="1.000000" stroke="none" 
	d="
M328.253296,222.939209 
	C328.162292,222.760910 328.334869,222.514648 328.741302,222.171036 
	C328.887939,222.370651 328.735199,222.636505 328.253296,222.939209 
z"/>
<path fill="#511615" opacity="1.000000" stroke="none" 
	d="
M327.230988,227.923523 
	C327.062897,227.842926 327.053131,227.651199 327.040222,227.170898 
	C327.154510,227.192322 327.271912,227.502350 327.230988,227.923523 
z"/>
<path fill="#511615" opacity="1.000000" stroke="none" 
	d="
M326.279114,229.064240 
	C326.231262,228.901428 326.418762,228.614975 326.822723,228.187073 
	C326.864288,228.343933 326.689392,228.642258 326.279114,229.064240 
z"/>
<path fill="#602623" opacity="1.000000" stroke="none" 
	d="
M158.968597,296.704468 
	C158.750824,296.793518 158.461884,296.613831 158.054520,296.201508 
	C158.256546,296.124481 158.576996,296.280121 158.968597,296.704468 
z"/>
<path fill="#CFD2C4" opacity="1.000000" stroke="none" 
	d="
M320.078339,213.039230 
	C320.376282,214.140854 320.674255,215.242477 321.089172,216.673538 
	C320.861206,220.135803 320.516327,223.268600 320.115051,226.820801 
	C316.477905,225.575760 312.999542,223.625259 309.297241,222.300644 
	C298.238312,218.343933 287.680756,219.046722 278.400238,226.891357 
	C276.208069,228.744339 274.721375,231.431854 272.604309,234.124420 
	C259.150818,229.031754 245.124420,229.207382 231.301910,234.002502 
	C218.332642,217.442490 207.982574,215.929642 184.892456,227.660507 
	C184.662476,223.078979 184.455078,218.947449 184.794540,214.310516 
	C190.780258,208.122574 196.148499,202.370056 201.685425,196.784775 
	C204.816025,193.626862 204.534271,191.586517 200.268799,189.984879 
	C198.903564,189.472229 197.398865,189.330994 195.957962,189.019821 
	C190.634415,186.879272 187.149490,182.936432 185.214752,177.241806 
	C186.809189,175.444672 188.579620,174.395508 189.332428,172.850494 
	C192.984711,165.354950 199.165909,164.675827 206.367355,165.791870 
	C208.801804,166.169128 212.220383,166.669403 213.743317,165.390991 
	C222.752838,157.828003 233.611481,153.986115 244.493423,151.300140 
	C259.407013,147.619019 273.134369,153.328247 284.915314,162.044144 
	C290.480774,166.161621 294.899475,167.906891 301.011322,164.877441 
	C301.887665,164.443085 302.932404,164.362564 303.871216,164.037445 
	C306.381012,163.168274 308.252930,163.445206 310.505981,165.441208 
	C313.507355,168.100174 317.326172,169.836411 320.793884,171.969025 
	C321.963104,177.589111 318.678436,181.272705 314.700195,185.307846 
	C312.145142,187.165207 310.076141,188.580811 307.574951,190.036179 
	C304.306000,190.075943 301.469269,190.075943 297.091888,190.075943 
	C305.287476,198.263290 312.682922,205.651260 320.078339,213.039230 
M256.065979,180.688736 
	C253.090042,180.894516 249.968735,180.627335 247.191940,181.480942 
	C245.487595,182.004837 243.356949,184.132706 243.167511,185.745819 
	C242.981094,187.333084 244.723877,189.474533 246.142990,190.822327 
	C247.346420,191.965317 249.295837,192.322830 251.523087,193.292618 
	C250.401993,195.073853 249.519928,196.475311 248.589600,197.953445 
	C252.503723,198.125946 256.428101,198.298889 260.352478,198.471848 
	C260.332184,197.849274 260.311890,197.226715 260.291595,196.604141 
	C259.557709,196.691315 258.714142,197.052856 258.111420,196.811920 
	C256.578003,196.198898 255.152267,195.316498 253.683426,194.541901 
	C254.743881,193.694397 255.772888,192.802521 256.878479,192.018677 
	C257.408478,191.642883 258.351654,191.642349 258.647125,191.178482 
	C260.060425,188.959625 262.003143,186.722809 262.292236,184.316345 
	C262.409241,183.342255 258.795654,181.920029 256.065979,180.688736 
M275.482605,204.930801 
	C279.117950,210.467209 286.959351,212.488739 292.399963,208.840637 
	C294.041840,207.739716 295.769287,205.123962 295.584961,203.402664 
	C295.399658,201.672745 293.127960,199.292068 291.331482,198.800156 
	C288.097443,197.914627 284.518219,197.926300 281.115204,198.121231 
	C277.575562,198.324005 275.281555,200.328308 275.482605,204.930801 
M213.513824,198.638016 
	C212.008362,200.136734 209.232391,201.698959 209.303391,203.118851 
	C209.403015,205.111526 211.395828,208.407181 212.973434,208.657349 
	C217.135895,209.317368 221.606613,209.095520 225.748138,208.233231 
	C227.145096,207.942368 228.962982,204.504852 228.689865,202.811691 
	C228.415649,201.111694 225.970306,198.912292 224.128387,198.504715 
	C221.002960,197.813126 217.604156,198.356949 213.513824,198.638016 
M215.549347,187.875305 
	C221.617279,186.439041 227.685211,185.002777 233.667969,183.586670 
	C230.782425,177.154739 219.395554,174.686600 214.241302,180.016632 
	C211.753433,182.589355 211.239609,185.465134 215.549347,187.875305 
M285.726074,177.651840 
	C278.743652,176.499817 274.032104,178.670166 271.859222,184.825119 
	C275.238617,184.613449 278.242096,184.425323 281.245575,184.237198 
	C281.132172,184.668015 281.018768,185.098816 280.905365,185.529633 
	C283.311493,186.347351 285.688324,187.633163 288.136047,187.786346 
	C289.369598,187.863556 291.622131,186.057587 291.862335,184.805481 
	C292.487427,181.547501 290.825500,179.084381 287.474701,178.056473 
	C287.158936,177.959610 286.832367,177.897842 285.726074,177.651840 
z"/>
<path fill="#F4E9D8" opacity="1.000000" stroke="none" 
	d="
M320.777344,171.612488 
	C317.326172,169.836411 313.507355,168.100174 310.505981,165.441208 
	C308.252930,163.445206 306.381012,163.168274 303.871216,164.037445 
	C302.932404,164.362564 301.887665,164.443085 301.011322,164.877441 
	C294.899475,167.906891 290.480774,166.161621 284.915314,162.044144 
	C273.134369,153.328247 259.407013,147.619019 244.493423,151.300140 
	C233.611481,153.986115 222.752838,157.828003 213.743317,165.390991 
	C212.220383,166.669403 208.801804,166.169128 206.367355,165.791870 
	C199.165909,164.675827 192.984711,165.354950 189.332428,172.850494 
	C188.579620,174.395508 186.809189,175.444672 185.205505,176.884125 
	C183.198242,170.920883 185.444748,165.115738 190.858078,161.657928 
	C196.915100,157.789017 201.122253,158.280518 206.823669,162.919678 
	C209.099960,164.771881 210.859039,163.540939 212.870682,161.316238 
	C225.780975,147.038498 241.585114,138.984131 261.110077,143.084198 
	C274.065948,145.804825 285.729523,151.883743 292.934784,163.861679 
	C310.668610,156.420395 314.537384,157.478256 320.777344,171.612488 
z"/>
<path fill="#F29896" opacity="1.000000" stroke="none" 
	d="
M217.635986,146.692993 
	C214.966019,149.138412 212.296051,151.583847 209.567871,154.082596 
	C188.202667,148.711914 176.862152,157.187622 177.539108,178.154846 
	C172.123672,174.824081 169.257141,165.042740 172.041061,157.453064 
	C172.878906,156.386826 173.381134,155.937622 173.743530,155.395035 
	C183.438599,140.879303 202.886398,137.017868 217.635986,146.692993 
z"/>
<path fill="#EF9897" opacity="1.000000" stroke="none" 
	d="
M332.947723,158.051682 
	C335.922577,165.578094 332.991913,171.849182 328.293396,177.842194 
	C327.845337,177.844635 327.603577,177.602020 327.603577,177.602020 
	C330.882080,161.496719 314.209351,146.221527 296.003540,154.601151 
	C293.348114,152.190430 290.786499,149.864883 288.258606,146.934509 
	C295.890991,141.683044 304.217224,141.016876 312.690796,142.459473 
	C320.324219,143.759033 326.691376,147.225403 329.985535,154.885666 
	C330.522644,156.134644 331.938202,157.005859 332.947723,158.051682 
z"/>
<path fill="#F4E7D6" opacity="1.000000" stroke="none" 
	d="
M332.988037,157.625031 
	C331.938202,157.005859 330.522644,156.134644 329.985535,154.885666 
	C326.691376,147.225403 320.324219,143.759033 312.690796,142.459473 
	C304.217224,141.016876 295.890991,141.683044 288.099243,146.630173 
	C286.522522,146.146393 285.138947,145.362091 283.285522,144.311462 
	C290.526764,135.406982 299.492798,131.987869 309.988647,133.289856 
	C320.121277,134.546783 328.099213,139.331100 331.301056,149.827271 
	C332.035797,152.235809 332.460785,154.738846 332.988037,157.625031 
z"/>
<path fill="#F4E7D6" opacity="1.000000" stroke="none" 
	d="
M217.958191,146.585312 
	C202.886398,137.017868 183.438599,140.879303 173.743530,155.395035 
	C173.381134,155.937622 172.878906,156.386826 172.139435,157.064606 
	C170.365189,150.499695 174.286621,145.767975 178.281235,141.388702 
	C189.913589,128.636215 208.088425,131.971466 218.515945,140.613373 
	C220.867569,142.562286 222.271500,144.682938 217.958191,146.585312 
z"/>
<path fill="#F6EFDD" opacity="1.000000" stroke="none" 
	d="
M320.112244,212.635803 
	C312.682922,205.651260 305.287476,198.263290 297.091888,190.075943 
	C301.469269,190.075943 304.306000,190.075943 307.732574,190.294739 
	C309.410645,191.391754 310.498901,192.269958 311.587128,193.148163 
	C312.112854,194.016022 312.638580,194.883881 313.404724,195.941971 
	C315.812164,201.498932 317.979156,206.865662 320.112244,212.635803 
z"/>
<path fill="#F6EFDD" opacity="1.000000" stroke="none" 
	d="
M196.004700,189.367035 
	C197.398865,189.330994 198.903564,189.472229 200.268799,189.984879 
	C204.534271,191.586517 204.816025,193.626862 201.685425,196.784775 
	C196.148499,202.370056 190.780258,208.122574 185.036774,214.001617 
	C185.338287,206.362106 188.440216,199.582565 193.548035,193.300049 
	C194.449661,191.898499 195.250565,190.806366 196.004700,189.367035 
z"/>
<path fill="#511615" opacity="1.000000" stroke="none" 
	d="
M311.976135,193.038193 
	C310.498901,192.269958 309.410645,191.391754 308.164795,190.254974 
	C310.076141,188.580811 312.145142,187.165207 314.515015,185.566589 
	C313.998962,187.898438 313.182037,190.413330 311.976135,193.038193 
z"/>
<path fill="#EF9897" opacity="1.000000" stroke="none" 
	d="
M327.964539,177.967575 
	C327.908142,178.323227 327.732544,178.555939 327.556976,178.788635 
	C327.474091,178.515488 327.391205,178.242340 327.455963,177.785599 
	C327.603577,177.602020 327.845337,177.844635 327.964539,177.967575 
z"/>
<path fill="#FCEAD6" opacity="1.000000" stroke="none" 
	d="
M192.032730,259.741760 
	C192.462692,259.835938 192.892639,259.930084 193.652618,260.040955 
	C205.823120,265.308807 219.091537,263.396454 226.396881,254.802322 
	C228.626633,252.179214 229.351120,248.321671 231.047684,245.182266 
	C231.972061,243.471771 233.196991,241.228256 234.786041,240.684036 
	C246.067963,236.820099 257.530975,236.309845 268.841461,240.549484 
	C270.683960,241.240112 273.052765,243.232422 273.342560,244.935471 
	C275.871002,259.794586 290.918427,264.001923 302.552765,262.610016 
	C305.794525,262.222137 308.914642,260.817871 312.748474,260.029053 
	C314.567444,265.153229 316.680939,270.118225 316.733551,275.104919 
	C317.053070,305.395630 317.127686,335.693665 316.805450,365.984192 
	C316.665405,379.148773 308.343597,387.795746 296.429321,387.896149 
	C275.626434,388.071472 254.820358,387.868896 234.016510,387.529633 
	C234.017258,386.839050 234.017105,386.443573 234.128845,385.658936 
	C233.376389,383.196747 232.594055,381.084686 231.630341,379.058868 
	C229.728149,375.060211 227.725479,371.109406 225.405350,366.411896 
	C250.102905,365.358704 273.533325,367.479401 297.033051,364.512756 
	C296.682312,363.582275 296.523346,362.756897 296.348175,362.753510 
	C286.584839,362.561096 276.820221,362.437347 266.593933,362.201538 
	C252.406418,362.143097 238.680649,362.189789 224.625259,362.070648 
	C223.608414,360.264526 223.121719,358.498352 222.188843,357.012268 
	C220.630402,354.529663 218.786789,352.226044 217.063217,349.847076 
	C216.412415,348.936371 215.896637,347.878632 215.089890,347.137726 
	C207.061325,339.764709 198.984726,332.444000 190.463745,324.663269 
	C187.663300,322.102417 185.320816,319.986847 183.271164,317.629150 
	C186.467224,317.034149 187.168045,315.311798 187.139847,312.550171 
	C187.015915,300.411804 186.591492,288.241455 187.317413,276.145203 
	C187.650024,270.602997 190.386459,265.205109 192.032730,259.741760 
M250.499908,306.999512 
	C264.488983,306.980316 278.478119,306.970398 292.467133,306.932617 
	C294.738617,306.926483 297.516815,307.403320 296.587006,303.265198 
	C266.670959,303.265198 236.754852,303.265198 206.838745,303.265198 
	C206.692810,303.729492 206.546875,304.193787 206.400940,304.658081 
	C208.777069,305.474365 211.141663,306.953461 213.531296,306.995087 
	C225.517197,307.203766 237.509674,307.036407 250.499908,306.999512 
M208.125229,331.539307 
	C207.192383,335.175476 209.450729,335.110138 212.020538,335.105377 
	C238.948669,335.055481 265.876923,335.076019 292.805084,335.047882 
	C294.058624,335.046570 295.311890,334.769501 296.565277,334.620850 
	C296.761780,334.088440 296.958252,333.556000 297.154724,333.023590 
	C295.633209,332.277527 294.113800,330.886200 292.589813,330.881134 
	C264.667816,330.788910 236.745255,330.862823 208.125229,331.539307 
z"/>
<path fill="#F49B98" opacity="1.000000" stroke="none" 
	d="
M234.015610,387.824707 
	C254.820358,387.868896 275.626434,388.071472 296.429321,387.896149 
	C308.343597,387.795746 316.665405,379.148773 316.805450,365.984192 
	C317.127686,335.693665 317.053070,305.395630 316.733551,275.104919 
	C316.680939,270.118225 314.567444,265.153229 313.112183,259.922913 
	C312.817993,259.667572 312.847809,259.292542 312.921631,259.119446 
	C316.649506,256.176453 320.303558,253.406570 324.207001,250.447632 
	C327.566803,253.517349 329.060883,257.981781 329.069122,262.945465 
	C329.130920,300.251770 329.205017,337.558350 329.107971,374.864441 
	C329.070892,389.119812 317.827057,399.722717 302.867371,399.787506 
	C277.552917,399.897186 252.237762,399.841858 226.131393,399.861023 
	C224.893387,399.921997 224.446884,399.977814 224.000381,400.033630 
	C217.019165,399.963409 210.028534,400.085999 203.060516,399.745636 
	C199.296371,399.561768 195.570892,398.586609 191.430603,397.928467 
	C180.587814,392.355255 174.878998,383.933960 175.172241,370.973633 
	C175.155899,365.479980 175.129501,360.871796 175.103119,356.263580 
	C179.021957,359.872162 182.940811,363.480743 186.931305,367.828857 
	C187.138596,378.468048 195.788147,387.531250 206.077133,387.883514 
	C215.378387,388.201965 224.701904,387.869904 234.015610,387.824707 
z"/>
<path fill="#511818" opacity="1.000000" stroke="none" 
	d="
M267.055695,362.306732 
	C276.820221,362.437347 286.584839,362.561096 296.348175,362.753510 
	C296.523346,362.756897 296.682312,363.582275 297.033051,364.512756 
	C273.533325,367.479401 250.102905,365.358704 225.405350,366.411896 
	C227.725479,371.109406 229.728149,375.060211 231.630341,379.058868 
	C232.594055,381.084686 233.376389,383.196747 233.774536,385.770813 
	C232.049545,386.344757 230.639496,386.826294 229.556091,386.425293 
	C221.631744,383.492371 213.772934,380.382385 205.893433,377.328278 
	C205.923447,376.500793 205.953476,375.673279 206.369568,374.502838 
	C212.701096,375.674622 218.646545,377.189331 225.492111,378.933350 
	C223.528458,373.241302 222.123642,368.242798 220.049927,363.539215 
	C218.973221,361.097015 216.713943,359.176178 214.988892,357.019836 
	C215.635437,354.875549 216.281982,352.731232 216.995880,350.217010 
	C218.786789,352.226044 220.630402,354.529663 222.188843,357.012268 
	C223.121719,358.498352 223.608414,360.264526 224.761581,362.438721 
	C225.945694,363.305695 226.662521,363.925598 227.382263,363.928986 
	C239.520325,363.986237 251.659134,364.008911 263.796356,363.892090 
	C264.887787,363.881622 265.969482,362.859222 267.055695,362.306732 
z"/>
<path fill="#F7E4D1" opacity="1.000000" stroke="none" 
	d="
M205.523438,377.321381 
	C213.772934,380.382385 221.631744,383.492371 229.556091,386.425293 
	C230.639496,386.826294 232.049545,386.344757 233.662659,386.159943 
	C234.017105,386.443573 234.017258,386.839050 234.016510,387.529633 
	C224.701904,387.869904 215.378387,388.201965 206.077133,387.883514 
	C195.788147,387.531250 187.138596,378.468048 187.044800,368.134338 
	C190.481766,370.256439 194.054825,372.613251 197.214722,375.433044 
	C199.668610,377.622803 202.048492,378.601410 205.523438,377.321381 
z"/>
<path fill="#F3F3EB" opacity="1.000000" stroke="none" 
	d="
M214.692383,357.176239 
	C216.713943,359.176178 218.973221,361.097015 220.049927,363.539215 
	C222.123642,368.242798 223.528458,373.241302 225.492111,378.933350 
	C218.646545,377.189331 212.701096,375.674622 206.375259,374.088776 
	C203.501328,371.433624 203.590561,368.651581 205.834381,366.116974 
	C208.541534,363.059021 211.529465,360.249603 214.692383,357.176239 
z"/>
<path fill="#511818" opacity="1.000000" stroke="none" 
	d="
M175.038452,355.908325 
	C175.129501,360.871796 175.155899,365.479980 175.083603,370.544464 
	C173.990494,369.707947 172.923096,368.463806 172.020401,367.109863 
	C170.930527,365.475189 169.980240,363.747437 168.590576,362.034241 
	C168.163544,357.973114 168.115479,353.937683 168.150665,349.444519 
	C170.480545,351.175537 172.727173,353.364319 175.038452,355.908325 
z"/>
<path fill="#602623" opacity="1.000000" stroke="none" 
	d="
M182.978348,317.871246 
	C185.320816,319.986847 187.663300,322.102417 190.164673,324.531097 
	C185.321854,325.690613 182.555084,323.195282 181.071899,318.339691 
	C181.014679,317.984283 181.349289,317.630707 181.718201,317.593628 
	C182.328705,317.818634 182.625793,317.923523 182.978348,317.871246 
z"/>
<path fill="#CFD2C4" opacity="1.000000" stroke="none" 
	d="
M311.213165,251.812668 
	C304.252533,255.879959 297.342682,257.135773 289.827515,254.068344 
	C284.859070,252.040421 281.782654,248.628967 280.407410,243.086121 
	C284.237976,237.346161 289.565094,235.697617 295.512939,234.931610 
	C303.323334,233.925690 309.517181,237.822586 316.155884,241.382156 
	C316.978363,242.709763 317.614624,243.731369 318.250916,244.752960 
	C315.968231,247.014755 313.685516,249.276550 311.213165,251.812668 
z"/>
<path fill="#F6EFDD" opacity="1.000000" stroke="none" 
	d="
M315.969666,241.076157 
	C309.517181,237.822586 303.323334,233.925690 295.512939,234.931610 
	C289.565094,235.697617 284.237976,237.346161 280.370911,242.736938 
	C279.228088,235.014999 284.326721,228.910507 292.013062,227.731781 
	C299.962097,226.512787 306.922699,228.241699 313.645905,232.862122 
	C316.506226,235.404724 319.007996,238.031219 320.900116,240.812286 
	C318.850189,241.003296 317.409943,241.039734 315.969666,241.076157 
z"/>
<path fill="#F4E7D6" opacity="1.000000" stroke="none" 
	d="
M316.155884,241.382156 
	C317.409943,241.039734 318.850189,241.003296 320.630981,240.979492 
	C320.256439,242.126114 319.541443,243.260147 318.538666,244.573563 
	C317.614624,243.731369 316.978363,242.709763 316.155884,241.382156 
z"/>
<path fill="#4B1312" opacity="1.000000" stroke="none" 
	d="
M224.061493,400.294342 
	C224.446884,399.977814 224.893387,399.921997 225.669769,399.948792 
	C225.373978,400.205933 224.748306,400.380493 224.061493,400.294342 
z"/>
<path fill="#CFD2C4" opacity="1.000000" stroke="none" 
	d="
M197.403503,253.993195 
	C196.525116,253.627411 196.034607,253.306198 195.050735,252.858063 
	C194.029251,252.514740 193.501114,252.298340 192.972992,252.081955 
	C190.720062,249.600632 188.467117,247.119324 186.428940,244.152847 
	C188.608780,242.439041 190.575714,241.213348 192.538666,239.981308 
	C203.780197,232.925690 212.247040,233.285370 222.894165,241.232788 
	C223.401642,241.611603 224.107010,241.725311 224.720245,241.962463 
	C222.020813,253.624237 210.449493,258.812988 197.403503,253.993195 
z"/>
<path fill="#F6EFDD" opacity="1.000000" stroke="none" 
	d="
M224.794861,241.571930 
	C224.107010,241.725311 223.401642,241.611603 222.894165,241.232788 
	C212.247040,233.285370 203.780197,232.925690 192.538666,239.981308 
	C190.575714,241.213348 188.608780,242.439041 186.344177,243.828552 
	C185.071320,243.207840 184.097977,242.426270 183.028442,241.323486 
	C189.721069,228.722076 207.645477,223.913971 218.916168,230.492447 
	C222.696991,232.699234 225.153458,236.356201 224.794861,241.571930 
z"/>
<path fill="#EF9897" opacity="1.000000" stroke="none" 
	d="
M183.271164,317.629150 
	C182.625793,317.923523 182.328705,317.818634 181.885468,317.416809 
	C179.485504,314.411316 177.287170,311.545563 175.012680,308.334717 
	C175.013153,293.870636 174.728104,279.735779 175.346390,265.640564 
	C175.590012,260.086426 177.849350,254.620697 179.212646,249.025085 
	C183.991104,252.951431 187.810684,256.089874 191.831482,259.485046 
	C190.386459,265.205109 187.650024,270.602997 187.317413,276.145203 
	C186.591492,288.241455 187.015915,300.411804 187.139847,312.550171 
	C187.168045,315.311798 186.467224,317.034149 183.271164,317.629150 
z"/>
<path fill="#511615" opacity="1.000000" stroke="none" 
	d="
M193.025696,252.336578 
	C193.501114,252.298340 194.029251,252.514740 194.757843,252.934753 
	C194.331680,252.955994 193.705032,252.773605 193.025696,252.336578 
z"/>
<path fill="#4C1212" opacity="1.000000" stroke="none" 
	d="
M256.472839,180.695236 
	C258.795654,181.920029 262.409241,183.342255 262.292236,184.316345 
	C262.003143,186.722809 260.060425,188.959625 258.647125,191.178482 
	C258.351654,191.642349 257.408478,191.642883 256.878479,192.018677 
	C255.772888,192.802521 254.743881,193.694397 253.683426,194.541901 
	C255.152267,195.316498 256.578003,196.198898 258.111420,196.811920 
	C258.714142,197.052856 259.557709,196.691315 260.291595,196.604141 
	C260.311890,197.226715 260.332184,197.849274 260.352478,198.471848 
	C256.428101,198.298889 252.503723,198.125946 248.589600,197.953445 
	C249.519928,196.475311 250.401993,195.073853 251.523087,193.292618 
	C249.295837,192.322830 247.346420,191.965317 246.142990,190.822327 
	C244.723877,189.474533 242.981094,187.333084 243.167511,185.745819 
	C243.356949,184.132706 245.487595,182.004837 247.191940,181.480942 
	C249.968735,180.627335 253.090042,180.894516 256.472839,180.695236 
z"/>
<path fill="#F49B98" opacity="1.000000" stroke="none" 
	d="
M275.377197,204.574295 
	C275.281555,200.328308 277.575562,198.324005 281.115204,198.121231 
	C284.518219,197.926300 288.097443,197.914627 291.331482,198.800156 
	C293.127960,199.292068 295.399658,201.672745 295.584961,203.402664 
	C295.769287,205.123962 294.041840,207.739716 292.399963,208.840637 
	C286.959351,212.488739 279.117950,210.467209 275.377197,204.574295 
z"/>
<path fill="#FE9597" opacity="1.000000" stroke="none" 
	d="
M213.917038,198.509766 
	C217.604156,198.356949 221.002960,197.813126 224.128387,198.504715 
	C225.970306,198.912292 228.415649,201.111694 228.689865,202.811691 
	C228.962982,204.504852 227.145096,207.942368 225.748138,208.233231 
	C221.606613,209.095520 217.135895,209.317368 212.973434,208.657349 
	C211.395828,208.407181 209.403015,205.111526 209.303391,203.118851 
	C209.232391,201.698959 212.008362,200.136734 213.917038,198.509766 
z"/>
<path fill="#511615" opacity="1.000000" stroke="none" 
	d="
M215.167404,187.855118 
	C211.239609,185.465134 211.753433,182.589355 214.241302,180.016632 
	C219.395554,174.686600 230.782425,177.154739 233.667969,183.586670 
	C227.685211,185.002777 221.617279,186.439041 215.167404,187.855118 
z"/>
<path fill="#511818" opacity="1.000000" stroke="none" 
	d="
M286.118469,177.735809 
	C286.832367,177.897842 287.158936,177.959610 287.474701,178.056473 
	C290.825500,179.084381 292.487427,181.547501 291.862335,184.805481 
	C291.622131,186.057587 289.369598,187.863556 288.136047,187.786346 
	C285.688324,187.633163 283.311493,186.347351 280.905365,185.529633 
	C281.018768,185.098816 281.132172,184.668015 281.245575,184.237198 
	C278.242096,184.425323 275.238617,184.613449 271.859222,184.825119 
	C274.032104,178.670166 278.743652,176.499817 286.118469,177.735809 
z"/>
<path fill="#591C1D" opacity="1.000000" stroke="none" 
	d="
M249.999878,307.000366 
	C237.509674,307.036407 225.517197,307.203766 213.531296,306.995087 
	C211.141663,306.953461 208.777069,305.474365 206.400940,304.658081 
	C206.546875,304.193787 206.692810,303.729492 206.838745,303.265198 
	C236.754852,303.265198 266.670959,303.265198 296.587006,303.265198 
	C297.516815,307.403320 294.738617,306.926483 292.467133,306.932617 
	C278.478119,306.970398 264.488983,306.980316 249.999878,307.000366 
z"/>
<path fill="#511615" opacity="1.000000" stroke="none" 
	d="
M208.474030,331.220398 
	C236.745255,330.862823 264.667816,330.788910 292.589813,330.881134 
	C294.113800,330.886200 295.633209,332.277527 297.154724,333.023590 
	C296.958252,333.556000 296.761780,334.088440 296.565277,334.620850 
	C295.311890,334.769501 294.058624,335.046570 292.805084,335.047882 
	C265.876923,335.076019 238.948669,335.055481 212.020538,335.105377 
	C209.450729,335.110138 207.192383,335.175476 208.474030,331.220398 
z"/>
<path fill="#6F3835" opacity="1.000000" stroke="none" 
	d="
M266.593933,362.201538 
	C265.969482,362.859222 264.887787,363.881622 263.796356,363.892090 
	C251.659134,364.008911 239.520325,363.986237 227.382263,363.928986 
	C226.662521,363.925598 225.945694,363.305695 225.091187,362.604614 
	C238.680649,362.189789 252.406418,362.143097 266.593933,362.201538 
z"/>
</svg>