<?xml version="1.0" standalone="no"?>
<!DOCTYPE svg PUBLIC "-//W3C//DTD SVG 20010904//EN"
 "http://www.w3.org/TR/2001/REC-SVG-20010904/DTD/svg10.dtd">
<svg version="1.0" xmlns="http://www.w3.org/2000/svg"
 width="536.000000pt" height="465.000000pt" viewBox="0 0 536.000000 465.000000"
 preserveAspectRatio="xMidYMid meet">

<g transform="translate(0.000000,465.000000) scale(0.100000,-0.100000)"
fill="#000000" stroke="none">
<path d="M1837 4069 c-55 -13 -90 -34 -125 -73 -59 -68 -62 -94 -62 -572 l0
-432 -62 -43 c-35 -23 -81 -57 -102 -76 -22 -18 -43 -33 -47 -33 -4 0 -14 24
-24 53 -31 97 -94 214 -169 314 -81 108 -112 143 -126 143 -28 0 -99 -111
-145 -225 -31 -79 -65 -229 -65 -292 0 -24 -4 -43 -9 -43 -4 0 -41 15 -82 34
-113 52 -216 81 -234 66 -38 -32 -8 -233 55 -368 22 -46 40 -88 40 -91 0 -4
-32 -12 -70 -19 -94 -16 -140 -36 -140 -60 0 -30 82 -135 141 -182 64 -51 126
-83 202 -105 31 -9 57 -19 57 -23 0 -30 95 -520 102 -529 16 -20 531 -18 547
1 7 8 35 135 62 283 53 290 54 293 68 293 5 0 10 -127 10 -312 2 -347 4 -360
72 -426 65 -63 49 -62 931 -62 550 0 813 3 843 11 55 14 122 70 146 123 16 35
19 68 19 219 l0 177 193 0 c180 0 195 -2 242 -24 60 -28 127 -99 143 -154 7
-22 12 -76 12 -121 l0 -81 -35 0 c-50 0 -99 -23 -125 -58 -17 -23 -33 -32 -69
-37 -60 -9 -90 -25 -133 -73 -53 -58 -61 -112 -57 -376 4 -221 4 -221 32 -268
18 -31 44 -57 75 -75 l47 -28 260 -3 c143 -2 284 -1 313 3 66 8 128 53 160
115 21 42 22 55 22 296 0 242 -1 252 -23 294 -33 63 -83 99 -155 113 -48 9
-64 17 -74 36 -16 30 -81 60 -129 61 l-37 0 -4 108 c-3 91 -8 115 -30 157 -34
65 -87 119 -151 153 -51 27 -56 27 -259 30 l-208 3 0 989 c0 964 -1 991 -20
1043 -23 60 -67 108 -125 134 -37 17 -93 18 -850 20 -455 1 -827 -3 -848 -8z
m1687 -92 c21 -12 47 -38 57 -57 18 -33 19 -82 19 -1096 0 -974 -1 -1063 -16
-1075 -12 -10 -62 -15 -178 -19 -153 -5 -161 -6 -161 -25 0 -19 7 -20 178 -20
l177 0 0 -100 c0 -114 -15 -155 -70 -192 l-33 -23 -832 0 -832 0 -33 23 c-55
37 -70 78 -70 192 l0 100 567 -3 c364 -2 570 1 576 7 7 7 6 15 -3 26 -11 13
-78 15 -554 15 -474 0 -544 2 -564 16 l-22 15 0 1062 c1 1194 -5 1104 76 1153
l39 24 820 0 820 0 39 -23z m-1874 -1285 c0 -136 -3 -192 -12 -203 -7 -9 -33
-21 -58 -28 -25 -8 -67 -24 -94 -38 l-49 -25 7 24 c16 60 28 180 22 244 l-5
70 37 36 c46 44 130 108 143 108 5 0 9 -80 9 -188z m-834 43 c203 -100 329
-252 359 -435 l8 -45 -52 48 c-28 27 -80 62 -115 78 -59 27 -175 58 -221 59
-45 0 -145 230 -145 333 0 27 2 29 28 23 15 -4 77 -31 138 -61z m735 -660 c3
-2 -15 -115 -40 -250 l-46 -245 -217 0 c-217 0 -218 0 -223 23 -12 49 -75 401
-75 417 0 14 13 18 83 23 45 3 105 12 132 20 47 14 375 24 386 12z m2877 -727
c8 -8 12 -66 12 -195 0 -170 -1 -183 -19 -193 -11 -5 -66 -10 -123 -10 -154 0
-148 -9 -148 205 0 144 3 176 16 189 12 13 39 16 133 16 78 0 121 -4 129 -12z
m-365 -228 c2 -162 10 -190 66 -227 31 -21 45 -23 165 -23 216 0 236 21 236
253 l0 147 28 -6 c38 -9 53 -18 82 -49 l25 -27 3 -239 c5 -359 20 -343 -333
-347 -302 -4 -328 -1 -372 43 l-33 33 0 257 0 258 35 33 c31 29 63 44 88 40 4
-1 8 -66 10 -146z"/>
<path d="M2000 3788 c-83 -43 -80 -24 -80 -593 0 -557 -1 -545 69 -592 l34
-23 642 0 642 0 34 23 c70 47 69 35 69 590 0 483 -1 499 -21 538 -14 29 -32
46 -62 60 -40 18 -74 19 -662 19 l-621 0 -44 -22z m1306 -82 c12 -17 14 -104
14 -517 l0 -498 -22 -15 c-20 -14 -97 -16 -634 -16 -587 0 -613 1 -635 19
l-24 19 -3 491 -3 491 26 25 25 26 621 -3 c601 -3 621 -4 635 -22z"/>
<path d="M2821 3396 c-7 -8 -11 -34 -9 -58 l3 -43 52 -3 52 -3 3 -52 3 -52
105 0 105 0 3 58 3 57 -105 0 -105 0 -3 53 -3 52 -46 3 c-31 2 -50 -2 -58 -12z"/>
<path d="M2400 3350 l0 -49 -102 -3 -103 -3 0 -50 0 -50 108 -3 107 -3 0 51 0
50 50 0 50 0 0 55 0 55 -55 0 -55 0 0 -50z"/>
<path d="M2507 3084 c-4 -4 -7 -29 -7 -56 l0 -48 -50 0 -51 0 3 -57 3 -58 49
-3 c57 -4 66 5 66 66 l0 42 145 0 145 0 0 -42 c0 -61 9 -70 66 -66 l49 3 3 58
3 57 -50 0 -50 0 -3 53 -3 52 -156 3 c-85 1 -158 -1 -162 -4z"/>
<path d="M2568 2159 c-21 -12 -23 -42 -4 -58 9 -8 128 -10 421 -9 376 3 409 4
419 21 8 12 8 22 0 35 -10 16 -43 17 -415 19 -262 2 -410 -1 -421 -8z"/>
<path d="M3108 1583 c-22 -5 -35 -50 -21 -72 14 -22 57 -25 77 -6 21 22 20 41
-4 65 -20 20 -22 21 -52 13z"/>
<path d="M3290 1570 c-24 -24 -25 -43 -4 -64 18 -19 55 -21 72 -4 19 19 14 55
-10 72 -29 20 -34 20 -58 -4z"/>
<path d="M5352 2340 c0 -19 2 -27 5 -17 2 9 2 25 0 35 -3 9 -5 1 -5 -18z"/>
<path d="M1673 1113 c-10 -3 -13 -72 -13 -293 0 -253 2 -289 16 -294 20 -8
1958 -8 1978 0 14 5 16 41 16 294 0 253 -2 289 -16 294 -19 7 -1963 7 -1981
-1z m1927 -222 c0 -127 -2 -150 -16 -155 -9 -3 -301 -6 -650 -6 -615 0 -634
-1 -634 -19 0 -10 7 -22 16 -25 9 -3 301 -6 650 -6 l634 0 0 -40 0 -40 -935 0
-935 0 0 40 0 40 94 0 c64 0 97 4 104 13 22 26 -3 36 -98 39 l-95 3 -3 153 -3
152 936 0 935 0 0 -149z"/>
</g>
</svg>
